Coordinates
version=1
nRows=8
nColumns=63
inDegrees=yes

Units are S.I. units (second, meters, Newtons, ...)
If the header above contains a line with 'inDegrees', this indicates whether rotational values are in degrees (yes) or radians (no).

endheader
time	pelvis_tilt	pelvis_list	pelvis_rotation	pelvis_tx	pelvis_ty	pelvis_tz	hip_flexion_r	hip_adduction_r	hip_rotation_r	knee_angle_r	knee_angle_r_beta	ankle_angle_r	subtalar_angle_r	mtp_angle_r	hip_flexion_l	hip_adduction_l	hip_rotation_l	knee_angle_l	knee_angle_l_beta	ankle_angle_l	subtalar_angle_l	mtp_angle_l	L5_S1_Flex_Ext	L5_S1_Lat_Bending	L5_S1_axial_rotation	L4_L5_Flex_Ext	L4_L5_Lat_Bending	L4_L5_axial_rotation	L3_L4_Flex_Ext	L3_L4_Lat_Bending	L3_L4_axial_rotation	L2_L3_Flex_Ext	L2_L3_Lat_Bending	L2_L3_axial_rotation	L1_L2_Flex_Ext	L1_L2_Lat_Bending	L1_L2_axial_rotation	L1_T12_Flex_Ext	L1_T12_Lat_Bending	L1_T12_axial_rotation	Abs_r3	Abs_r2	Abs_r1	Abs_t1	Abs_t2	neck_flexion	neck_bending	neck_rotation	arm_flex_r	arm_add_r	arm_rot_r	elbow_flex_r	pro_sup_r	wrist_flex_r	wrist_dev_r	arm_flex_l	arm_add_l	arm_rot_l	elbow_flex_l	pro_sup_l	wrist_flex_l	wrist_dev_l
0.000000	1.087507	-3.345512	94.698056	0.174705	0.965340	0.441631	-1.112760	0.735939	14.393470	1.087518	0.018981	21.791570	-11.619585	0.000000	-0.548053	-1.863130	9.813590	0.495022	0.008640	24.718859	-9.577538	0.000000	0.593433	0.192903	-1.029601	1.102064	0.256561	-1.093951	0.974950	0.469025	-1.093951	0.678234	0.469025	-0.900901	0.551061	0.393368	-0.836551	0.339087	0.298807	-0.772201	4.238829	2.182160	-5.726334	0.000000	0.000000	28.303982	-2.040377	7.252525	15.660423	0.573468	68.449657	26.597398	65.241390	-1.866070	-12.609696	22.909551	9.450091	151.582990	4.739189	-9.601882	5.659903	-25.241337
0.016667	1.288869	-3.633437	96.063700	0.174288	0.966172	0.445106	-0.630980	0.987776	13.290876	1.133604	0.019785	21.363645	-12.123080	0.000000	0.264760	-2.017322	11.172186	0.554183	0.009672	24.488719	-10.202758	0.000000	0.556019	0.184937	-1.284496	1.032583	0.245967	-1.364777	0.913484	0.449657	-1.364777	0.635474	0.449657	-1.123934	0.516319	0.377125	-1.043653	0.317709	0.286468	-0.963372	3.971589	2.092050	-7.143984	0.000000	0.000000	28.301096	-0.926373	7.924795	15.542423	-0.014836	65.875278	29.586338	47.522486	0.126396	-8.915936	22.731319	7.977733	128.974940	10.373125	5.012012	4.745371	-19.600441
0.033333	1.426274	-3.877064	97.082497	0.174028	0.966847	0.448049	-0.195798	1.166122	12.410648	1.220919	0.021309	21.046946	-12.463597	0.000000	0.934793	-2.111777	12.188616	0.604503	0.010551	24.235027	-10.696745	0.000000	0.526649	0.176520	-1.471087	0.978040	0.234772	-1.563029	0.865231	0.429191	-1.563029	0.601907	0.429191	-1.287201	0.489046	0.359960	-1.195258	0.300927	0.273430	-1.103315	3.761800	1.996831	-8.181742	0.000000	0.000000	28.297139	-0.092524	8.398009	15.395414	-0.528426	63.697739	32.060664	34.136344	1.766124	-6.049592	22.431300	6.682264	110.230425	15.071329	17.471797	3.969588	-15.101038
0.050000	1.505051	-4.079250	97.785386	0.173912	0.967380	0.450498	0.194612	1.277259	11.735904	1.343766	0.023453	20.831150	-12.657352	0.000000	1.472845	-2.151610	12.895920	0.646687	0.011287	23.960884	-11.075935	0.000000	0.504523	0.167602	-1.595605	0.936949	0.222911	-1.695331	0.828880	0.407508	-1.695331	0.576619	0.407508	-1.396155	0.468500	0.341775	-1.296429	0.288284	0.259616	-1.196704	3.603755	1.895951	-8.874278	0.000000	0.000000	28.292222	0.491133	8.690079	15.224280	-0.972770	61.889166	34.061961	24.689987	3.077868	-3.938600	22.026502	5.552685	95.035656	18.909750	27.922109	3.322045	-11.643833
0.066667	1.530528	-4.242854	98.203310	0.173929	0.967785	0.452494	0.542078	1.327471	11.249762	1.496446	0.026118	20.705935	-12.720560	0.000000	1.889711	-2.141940	13.327140	0.681437	0.011893	23.669392	-11.356765	0.000000	0.488842	0.158135	-1.664287	0.907828	0.210320	-1.768305	0.803118	0.384491	-1.768305	0.558697	0.384491	-1.456251	0.453938	0.322470	-1.352233	0.279324	0.244952	-1.248215	3.491748	1.788860	-9.256263	0.000000	0.000000	28.286455	0.854565	8.818921	15.033907	-1.353337	60.421682	35.631819	18.790437	4.086376	-2.510893	21.533937	4.577999	83.076843	21.964336	36.507591	2.792235	-9.129529
0.083333	1.508034	-4.370736	98.367208	0.174065	0.968073	0.454074	0.848426	1.323043	10.935339	1.673260	0.029204	20.660979	-12.669436	0.000000	2.196189	-2.087883	13.515316	0.709456	0.012382	23.363654	-11.555671	0.000000	0.478807	0.148071	-1.683364	0.889192	0.196934	-1.788574	0.786632	0.360019	-1.788574	0.547228	0.360019	-1.472944	0.444620	0.301946	-1.367733	0.273590	0.229362	-1.262523	3.420070	1.675006	-9.362367	0.000000	0.000000	28.279950	1.027734	8.802449	14.829180	-1.675595	59.267414	36.811825	16.044717	4.816400	-1.694404	20.970613	3.747208	74.040196	24.311035	43.372880	2.369647	-7.458831
0.100000	1.442897	-4.465754	98.308022	0.174309	0.968260	0.455278	1.115486	1.270258	10.775754	1.868510	0.032612	20.685958	-12.520196	0.000000	2.403076	-1.994558	13.493487	0.731448	0.012766	23.046772	-11.689090	0.000000	0.473619	0.137360	-1.659072	0.879558	0.182688	-1.762764	0.778109	0.333976	-1.762764	0.541299	0.333976	-1.451688	0.439803	0.280104	-1.347996	0.270626	0.212770	-1.244304	3.383014	1.553838	-9.227259	0.000000	0.000000	28.272818	1.040607	8.658576	14.614983	-1.945013	58.398487	37.643566	16.059850	5.292692	-1.417066	20.353541	3.049315	67.611924	26.025798	48.662616	2.043772	-6.532444
0.116667	1.340446	-4.530766	98.056693	0.174648	0.968358	0.456146	1.345082	1.175400	10.754124	2.076498	0.036242	20.770551	-12.289056	0.000000	2.521169	-1.867081	13.294695	0.748116	0.013057	22.721847	-11.773458	0.000000	0.472480	0.125953	-1.597643	0.877442	0.167517	-1.697496	0.776237	0.306242	-1.697496	0.539997	0.306242	-1.397937	0.438745	0.256843	-1.298085	0.269975	0.195101	-1.198232	3.374874	1.424805	-8.885610	0.000000	0.000000	28.265169	0.923147	8.405218	14.396202	-2.167060	57.787024	38.168631	18.442858	5.540002	-1.606814	19.699732	2.473321	63.478238	27.184571	52.521440	1.804102	-6.251070
